<svg xmlns="http://www.w3.org/2000/svg" viewBox="0 0 100 100">
  <circle cx="50" cy="50" r="48" fill="none" stroke="#2c4263" stroke-width="2"/>
  <circle cx="50" cy="50" r="44" fill="none" stroke="#2c4263" stroke-width="1"/>
  <path d="M50 80 Q 25 80 20 70 Q 25 75 48 78 L 50 78 L 52 78 Q 75 75 80 70 Q 75 80 50 80 Z" fill="#2c4263"/>
  <path d="M50 76 Q 30 76 22 68 Q 30 72 48 74 L 50 74 L 52 74 Q 70 72 78 68 Q 70 76 50 76 Z" fill="#2c4263"/>
  <path d="M50 75 C 40 75 35 60 38 45 C 42 55 45 60 50 65 C 55 60 58 55 62 45 C 65 60 60 75 50 75 Z" fill="#f49b29"/>
  <path d="M45 65 C 40 60 42 45 45 30 C 48 45 48 50 50 55 C 52 50 52 45 55 30 C 58 45 60 60 55 65 C 50 62 48 55 45 65 Z" fill="#f49b29"/>
</svg>
